{
    "accessors" : [
        {
            "bufferView" : 0,
            "componentType" : 5123,
            "count" : 240,
            "max" : [
                239
            ],
            "min" : [
                0
            ],
            "type" : "SCALAR"
        },
        {
            "bufferView" : 1,
            "componentType" : 5126,
            "count" : 240,
            "max" : [
                0.8372699618339539,
                0.1123489961028099,
                0.3957679271697998
            ],
            "min" : [
                -0.783170759677887,
                -0.719328761100769,
                -0.4687574505805969
            ],
            "type" : "VEC3"
        },
        {
            "bufferView" : 2,
            "componentType" : 5126,
            "count" : 240,
            "max" : [
                0.9295785427093506,
                0.9796704649925232,
                0.9640817046165466
            ],
            "min" : [
                -0.9547048807144165,
                -0.9885909557342529,
                -0.9996301531791687
            ],
            "type" : "VEC3"
        },
        {
            "bufferView" : 3,
            "componentType" : 5123,
            "count" : 1686,
            "max" : [
                1155
            ],
            "min" : [
                0
            ],
            "type" : "SCALAR"
        },
        {
            "bufferView" : 4,
            "componentType" : 5126,
            "count" : 1156,
            "max" : [
                9.056863784790039,
                23.342878341674805,
                1.273315668106079
            ],
            "min" : [
                -8.876327514648438,
                -0.3722578287124634,
                -3.1592087745666504
            ],
            "type" : "VEC3"
        },
        {
            "bufferView" : 5,
            "componentType" : 5126,
            "count" : 1156,
            "max" : [
                0.9999074935913086,
                0.9749972224235535,
                0.9999282956123352
            ],
            "min" : [
                -0.999843955039978,
                -1.0,
                -0.9999281167984009
            ],
            "type" : "VEC3"
        },
        {
            "bufferView" : 6,
            "componentType" : 5123,
            "count" : 240,
            "max" : [
                239
            ],
            "min" : [
                0
            ],
            "type" : "SCALAR"
        },
        {
            "bufferView" : 7,
            "componentType" : 5126,
            "count" : 240,
            "max" : [
                1.0320626497268677,
                -0.2112065702676773,
                1.2805585861206055
            ],
            "min" : [
                -1.9456411600112915,
                -2.733727216720581,
                -0.20965348184108734
            ],
            "type" : "VEC3"
        },
        {
            "bufferView" : 8,
            "componentType" : 5126,
            "count" : 240,
            "max" : [
                0.8628861308097839,
                0.969783365726471,
                0.9917707443237305
            ],
            "min" : [
                -0.9512552618980408,
                -0.9626364707946777,
                -0.9990171790122986
            ],
            "type" : "VEC3"
        },
        {
            "bufferView" : 9,
            "componentType" : 5123,
            "count" : 240,
            "max" : [
                239
            ],
            "min" : [
                0
            ],
            "type" : "SCALAR"
        },
        {
            "bufferView" : 10,
            "componentType" : 5126,
            "count" : 240,
            "max" : [
                2.107820510864258,
                0.9608689546585083,
                0.8476972579956055
            ],
            "min" : [
                -1.3645455837249756,
                -1.071326494216919,
                -0.7986950874328613
            ],
            "type" : "VEC3"
        },
        {
            "bufferView" : 11,
            "componentType" : 5126,
            "count" : 240,
            "max" : [
                0.6930880546569824,
                0.9987581372261047,
                0.9849046468734741
            ],
            "min" : [
                -0.9924790859222412,
                -0.9445464015007019,
                -0.9711335897445679
            ],
            "type" : "VEC3"
        },
        {
            "bufferView" : 12,
            "componentType" : 5123,
            "count" : 30,
            "max" : [
                19
            ],
            "min" : [
                0
            ],
            "type" : "SCALAR"
        },
        {
            "bufferView" : 13,
            "componentType" : 5126,
            "count" : 20,
            "max" : [
                0.3722578287124634,
                1.4329252243041992,
                0.37225788831710815
            ],
            "min" : [
                -0.37225794792175293,
                -0.3722578287124634,
                -0.6575725674629211
            ],
            "type" : "VEC3"
        },
        {
            "bufferView" : 14,
            "componentType" : 5126,
            "count" : 20,
            "max" : [
                0.9999074935913086,
                0.8296672105789185,
                0.9817085266113281
            ],
            "min" : [
                -0.999843955039978,
                -0.16368941962718964,
                -0.9864989519119263
            ],
            "type" : "VEC3"
        },
        {
            "bufferView" : 15,
            "componentType" : 5123,
            "count" : 240,
            "max" : [
                239
            ],
            "min" : [
                0
            ],
            "type" : "SCALAR"
        },
        {
            "bufferView" : 16,
            "componentType" : 5126,
            "count" : 240,
            "max" : [
                0.7703465223312378,
                0.8187168836593628,
                0.33966273069381714
            ],
            "min" : [
                -1.2161602973937988,
                -1.3187577724456787,
                -1.0181056261062622
            ],
            "type" : "VEC3"
        },
        {
            "bufferView" : 17,
            "componentType" : 5126,
            "count" : 240,
            "max" : [
                0.9869608879089355,
                0.994089663028717,
                0.9398271441459656
            ],
            "min" : [
                -0.9821611642837524,
                -0.993998110294342,
                -0.9933931231498718
            ],
            "type" : "VEC3"
        },
        {
            "bufferView" : 18,
            "componentType" : 5123,
            "count" : 240,
            "max" : [
                239
            ],
            "min" : [
                0
            ],
            "type" : "SCALAR"
        },
        {
            "bufferView" : 19,
            "componentType" : 5126,
            "count" : 240,
            "max" : [
                1.3320797681808472,
                1.3218309879302979,
                1.5352153778076172
            ],
            "min" : [
                -0.8514998555183411,
                -1.9589338302612305,
                -0.8007488250732422
            ],
            "type" : "VEC3"
        },
        {
            "bufferView" : 20,
            "componentType" : 5126,
            "count" : 240,
            "max" : [
                0.9733637571334839,
                0.9792614579200745,
                0.9929285049438477
            ],
            "min" : [
                -0.9902591705322266,
                -0.7611290812492371,
                -0.9739887714385986
            ],
            "type" : "VEC3"
        },
        {
            "bufferView" : 21,
            "componentType" : 5123,
            "count" : 240,
            "max" : [
                239
            ],
            "min" : [
                0
            ],
            "type" : "SCALAR"
        },
        {
            "bufferView" : 22,
            "componentType" : 5126,
            "count" : 240,
            "max" : [
                1.3681517839431763,
                1.1242139339447021,
                0.4343460500240326
            ],
            "min" : [
                -1.2727128267288208,
                -0.35646986961364746,
                -1.1781747341156006
            ],
            "type" : "VEC3"
        },
        {
            "bufferView" : 23,
            "componentType" : 5126,
            "count" : 240,
            "max" : [
                0.9906905293464661,
                0.9797689914703369,
                0.9987613558769226
            ],
            "min" : [
                -0.9351415634155273,
                -0.9883285164833069,
                -0.991884708404541
            ],
            "type" : "VEC3"
        },
        {
            "bufferView" : 24,
            "componentType" : 5126,
            "count" : 81,
            "max" : [
                8.291666666666668
            ],
            "min" : [
                4.958333333333333
            ],
            "type" : "SCALAR"
        },
        {
            "bufferView" : 25,
            "componentType" : 5126,
            "count" : 81,
            "max" : [
                0.0,
                4.962275852449238e-07,
                0.7193397879600525,
                1.0
            ],
            "min" : [
                -5.413095891526609e-07,
                -9.664974953693672e-08,
                -0.0,
                0.6946583986282349
            ],
            "type" : "VEC4"
        }
    ],
    "animations" : [
        {
            "channels" : [
                {
                    "sampler" : 0,
                    "target" : {
                        "node" : 3,
                        "path" : "rotation"
                    }
                }
            ],
            "name" : "CubeAction.003",
            "samplers" : [
                {
                    "input" : 24,
                    "interpolation" : "LINEAR",
                    "output" : 25
                }
            ]
        }
    ],
    "asset" : {
        "generator" : "Khronos Blender glTF 2.0 exporter",
        "version" : "2.0"
    },
    "bufferViews" : [
        {
            "buffer" : 0,
            "byteLength" : 480,
            "byteOffset" : 0,
            "target" : 34963
        },
        {
            "buffer" : 0,
            "byteLength" : 2880,
            "byteOffset" : 480,
            "target" : 34962
        },
        {
            "buffer" : 0,
            "byteLength" : 2880,
            "byteOffset" : 3360,
            "target" : 34962
        },
        {
            "buffer" : 0,
            "byteLength" : 3372,
            "byteOffset" : 6240,
            "target" : 34963
        },
        {
            "buffer" : 0,
            "byteLength" : 13872,
            "byteOffset" : 9612,
            "target" : 34962
        },
        {
            "buffer" : 0,
            "byteLength" : 13872,
            "byteOffset" : 23484,
            "target" : 34962
        },
        {
            "buffer" : 0,
            "byteLength" : 480,
            "byteOffset" : 37356,
            "target" : 34963
        },
        {
            "buffer" : 0,
            "byteLength" : 2880,
            "byteOffset" : 37836,
            "target" : 34962
        },
        {
            "buffer" : 0,
            "byteLength" : 2880,
            "byteOffset" : 40716,
            "target" : 34962
        },
        {
            "buffer" : 0,
            "byteLength" : 480,
            "byteOffset" : 43596,
            "target" : 34963
        },
        {
            "buffer" : 0,
            "byteLength" : 2880,
            "byteOffset" : 44076,
            "target" : 34962
        },
        {
            "buffer" : 0,
            "byteLength" : 2880,
            "byteOffset" : 46956,
            "target" : 34962
        },
        {
            "buffer" : 0,
            "byteLength" : 60,
            "byteOffset" : 49836,
            "target" : 34963
        },
        {
            "buffer" : 0,
            "byteLength" : 240,
            "byteOffset" : 49896,
            "target" : 34962
        },
        {
            "buffer" : 0,
            "byteLength" : 240,
            "byteOffset" : 50136,
            "target" : 34962
        },
        {
            "buffer" : 0,
            "byteLength" : 480,
            "byteOffset" : 50376,
            "target" : 34963
        },
        {
            "buffer" : 0,
            "byteLength" : 2880,
            "byteOffset" : 50856,
            "target" : 34962
        },
        {
            "buffer" : 0,
            "byteLength" : 2880,
            "byteOffset" : 53736,
            "target" : 34962
        },
        {
            "buffer" : 0,
            "byteLength" : 480,
            "byteOffset" : 56616,
            "target" : 34963
        },
        {
            "buffer" : 0,
            "byteLength" : 2880,
            "byteOffset" : 57096,
            "target" : 34962
        },
        {
            "buffer" : 0,
            "byteLength" : 2880,
            "byteOffset" : 59976,
            "target" : 34962
        },
        {
            "buffer" : 0,
            "byteLength" : 480,
            "byteOffset" : 62856,
            "target" : 34963
        },
        {
            "buffer" : 0,
            "byteLength" : 2880,
            "byteOffset" : 63336,
            "target" : 34962
        },
        {
            "buffer" : 0,
            "byteLength" : 2880,
            "byteOffset" : 66216,
            "target" : 34962
        },
        {
            "buffer" : 0,
            "byteLength" : 324,
            "byteOffset" : 69096
        },
        {
            "buffer" : 0,
            "byteLength" : 1296,
            "byteOffset" : 69420
        }
    ],
    "buffers" : [
        {
            "byteLength" : 70716,
            "uri" : "GumtreeLowPoly.bin"
        }
    ],
    "materials" : [
        {
            "name" : "Log",
            "pbrMetallicRoughness" : {
                "baseColorFactor" : [
                    1.0,
                    0.9799407124519348,
                    0.70272296667099,
                    1.0
                ],
                "metallicFactor" : 0.0
            }
        },
        {
            "name" : "Material.007",
            "pbrMetallicRoughness" : {
                "baseColorFactor" : [
                    0.010665183886885643,
                    0.2284797579050064,
                    0.006544636096805334,
                    1.0
                ]
            }
        }
    ],
    "meshes" : [
        {
            "name" : "Icosphere.001",
            "primitives" : [
                {
                    "attributes" : {
                        "NORMAL" : 2,
                        "POSITION" : 1
                    },
                    "indices" : 0,
                    "material" : 1
                }
            ]
        },
        {
            "name" : "Cube",
            "primitives" : [
                {
                    "attributes" : {
                        "NORMAL" : 5,
                        "POSITION" : 4
                    },
                    "indices" : 3,
                    "material" : 0
                }
            ]
        },
        {
            "name" : "Icosphere",
            "primitives" : [
                {
                    "attributes" : {
                        "NORMAL" : 8,
                        "POSITION" : 7
                    },
                    "indices" : 6,
                    "material" : 1
                }
            ]
        },
        {
            "name" : "Icosphere.005",
            "primitives" : [
                {
                    "attributes" : {
                        "NORMAL" : 11,
                        "POSITION" : 10
                    },
                    "indices" : 9,
                    "material" : 1
                }
            ]
        },
        {
            "name" : "Cube.001",
            "primitives" : [
                {
                    "attributes" : {
                        "NORMAL" : 14,
                        "POSITION" : 13
                    },
                    "indices" : 12,
                    "material" : 0
                }
            ]
        },
        {
            "name" : "Icosphere.004",
            "primitives" : [
                {
                    "attributes" : {
                        "NORMAL" : 17,
                        "POSITION" : 16
                    },
                    "indices" : 15,
                    "material" : 1
                }
            ]
        },
        {
            "name" : "Icosphere.003",
            "primitives" : [
                {
                    "attributes" : {
                        "NORMAL" : 20,
                        "POSITION" : 19
                    },
                    "indices" : 18,
                    "material" : 1
                }
            ]
        },
        {
            "name" : "Icosphere.002",
            "primitives" : [
                {
                    "attributes" : {
                        "NORMAL" : 23,
                        "POSITION" : 22
                    },
                    "indices" : 21,
                    "material" : 1
                }
            ]
        }
    ],
    "nodes" : [
        {
            "name" : "BezierCircle",
            "rotation" : [
                0.7071068286895752,
                0.0,
                -0.0,
                0.7071068286895752
            ],
            "scale" : [
                13.632872581481934,
                13.632872581481934,
                13.632872581481934
            ],
            "translation" : [
                -0.0003302055411040783,
                0.29507142305374146,
                0.0024615228176116943
            ]
        },
        {
            "children" : [
                5,
                6,
                7,
                8,
                9,
                10
            ],
            "name" : "BezierCurve",
            "translation" : [
                -0.0003302055411040783,
                0.29507142305374146,
                0.0024615228176116943
            ]
        },
        {
            "name" : "Camera",
            "rotation" : [
                0.483536034822464,
                0.33687159419059753,
                -0.20870360732078552,
                0.7804827094078064
            ],
            "translation" : [
                25.674989700317383,
                26.509353637695312,
                17.28856658935547
            ]
        },
        {
            "mesh" : 1,
            "name" : "Cube",
            "scale" : [
                0.8759539723396301,
                0.8759539723396301,
                0.8759539723396301
            ],
            "translation" : [
                -0.0003302055411040783,
                0.29507142305374146,
                0.0024615228176116943
            ]
        },
        {
            "mesh" : 4,
            "name" : "Cube.001",
            "scale" : [
                0.8759539723396301,
                0.8759539723396301,
                0.8759539723396301
            ],
            "translation" : [
                0.0011940421536564827,
                0.32682931423187256,
                4.409061915566781e-08
            ]
        },
        {
            "mesh" : 2,
            "name" : "Icosphere",
            "rotation" : [
                0.0597265288233757,
                -0.5590662360191345,
                0.03350221738219261,
                0.8262900710105896
            ],
            "scale" : [
                2.2364392280578613,
                2.2364394664764404,
                2.2364392280578613
            ],
            "translation" : [
                1.3344447612762451,
                7.179844856262207,
                -6.216060638427734
            ]
        },
        {
            "mesh" : 0,
            "name" : "Icosphere.001",
            "rotation" : [
                -0.0009883347665891051,
                -0.6572557687759399,
                -0.0011332930298522115,
                0.7536661624908447
            ],
            "scale" : [
                5.166111946105957,
                5.166113376617432,
                5.166111946105957
            ],
            "translation" : [
                0.5197529792785645,
                7.966872215270996,
                -2.855501413345337
            ]
        },
        {
            "mesh" : 7,
            "name" : "Icosphere.002",
            "rotation" : [
                0.10404977202415466,
                -0.5674166083335876,
                -0.12340575456619263,
                0.8074546456336975
            ],
            "scale" : [
                3.8124866485595703,
                3.8124871253967285,
                3.812486410140991
            ],
            "translation" : [
                -0.016186963766813278,
                1.1196937561035156,
                3.2959139347076416
            ]
        },
        {
            "mesh" : 6,
            "name" : "Icosphere.003",
            "rotation" : [
                -0.07174009829759598,
                -0.6333509087562561,
                0.06925301253795624,
                0.767413854598999
            ],
            "scale" : [
                2.0486676692962646,
                2.048668384552002,
                2.0486676692962646
            ],
            "translation" : [
                3.64579176902771,
                -2.161334991455078,
                5.9789862632751465
            ]
        },
        {
            "mesh" : 5,
            "name" : "Icosphere.004",
            "rotation" : [
                -0.06761203706264496,
                -0.3224453926086426,
                -0.283244252204895,
                0.9006833434104919
            ],
            "scale" : [
                2.8383426666259766,
                2.8383429050445557,
                2.8383426666259766
            ],
            "translation" : [
                0.4710879623889923,
                -5.372525215148926,
                -3.301990509033203
            ]
        },
        {
            "mesh" : 3,
            "name" : "Icosphere.005",
            "rotation" : [
                0.14009523391723633,
                -0.6812699437141418,
                -0.16713160276412964,
                0.6987930536270142
            ],
            "scale" : [
                3.0810515880584717,
                3.081052303314209,
                3.0810515880584717
            ],
            "translation" : [
                2.904179334640503,
                0.6121454238891602,
                -2.6420907974243164
            ]
        },
        {
            "name" : "Lamp",
            "rotation" : [
                0.16907578706741333,
                0.7558802962303162,
                -0.27217134833335876,
                0.5709474682807922
            ],
            "scale" : [
                47.60616683959961,
                47.60615921020508,
                47.606170654296875
            ],
            "translation" : [
                0.3148529529571533,
                14.113067626953125,
                15.70634651184082
            ]
        },
        {
            "name" : "Lamp.001",
            "rotation" : [
                0.16907578706741333,
                0.7558802962303162,
                -0.27217134833335876,
                0.5709474682807922
            ],
            "scale" : [
                47.60616683959961,
                47.60615921020508,
                47.606170654296875
            ],
            "translation" : [
                21.425823211669922,
                14.113067626953125,
                -17.560457229614258
            ]
        }
    ],
    "scene" : 0,
    "scenes" : [
        {
            "name" : "Scene",
            "nodes" : [
                1,
                0,
                4,
                3,
                11,
                2,
                12
            ]
        }
    ]
}
